<mxfile host="65bd71144e">
    <diagram name="Page-1" id="hm1ChASOdK-j565E8vux">
        <mxGraphModel dx="641" dy="268" grid="1" gridSize="10" guides="1" tooltips="1" connect="1" arrows="1" fold="1" page="1" pageScale="1" pageWidth="850" pageHeight="1100" math="0" shadow="0">
            <root>
                <mxCell id="0"/>
                <mxCell id="1" parent="0"/>
                <mxCell id="mmxd7wg98YOJcxXk12TI-2" value="Book Catalog Managment Module" style="shape=module;align=left;spacingLeft=20;align=center;verticalAlign=top;whiteSpace=wrap;html=1;" parent="1" vertex="1">
                    <mxGeometry x="290" y="370" width="155" height="70" as="geometry"/>
                </mxCell>
                <mxCell id="mmxd7wg98YOJcxXk12TI-33" style="edgeStyle=orthogonalEdgeStyle;rounded=0;orthogonalLoop=1;jettySize=auto;html=1;exitX=0.5;exitY=0;exitDx=0;exitDy=0;" parent="1" source="mmxd7wg98YOJcxXk12TI-3" edge="1">
                    <mxGeometry relative="1" as="geometry">
                        <mxPoint x="355" y="230" as="targetPoint"/>
                    </mxGeometry>
                </mxCell>
                <mxCell id="mmxd7wg98YOJcxXk12TI-3" value="Authentication Module" style="shape=module;align=left;spacingLeft=20;align=center;verticalAlign=top;whiteSpace=wrap;html=1;" parent="1" vertex="1">
                    <mxGeometry x="315" y="230" width="130" height="70" as="geometry"/>
                </mxCell>
                <mxCell id="mmxd7wg98YOJcxXk12TI-4" value="User Managment Module" style="shape=module;align=left;spacingLeft=20;align=center;verticalAlign=top;whiteSpace=wrap;html=1;" parent="1" vertex="1">
                    <mxGeometry x="490" y="360" width="160" height="90" as="geometry"/>
                </mxCell>
                <mxCell id="mmxd7wg98YOJcxXk12TI-5" value="Searching Module&lt;br&gt;" style="shape=module;align=left;spacingLeft=20;align=center;verticalAlign=top;whiteSpace=wrap;html=1;" parent="1" vertex="1">
                    <mxGeometry x="300" y="25" width="160" height="60" as="geometry"/>
                </mxCell>
                <mxCell id="mmxd7wg98YOJcxXk12TI-8" value="Subscription Management Module" style="shape=module;align=left;spacingLeft=20;align=center;verticalAlign=top;whiteSpace=wrap;html=1;" parent="1" vertex="1">
                    <mxGeometry x="10" y="380" width="100" height="50" as="geometry"/>
                </mxCell>
                <mxCell id="mmxd7wg98YOJcxXk12TI-9" value="Reporting Module" style="shape=module;align=left;spacingLeft=20;align=center;verticalAlign=top;whiteSpace=wrap;html=1;" parent="1" vertex="1">
                    <mxGeometry x="150" y="382.5" width="100" height="45" as="geometry"/>
                </mxCell>
                <mxCell id="3" style="edgeStyle=none;html=1;entryX=0.4;entryY=0;entryDx=0;entryDy=0;entryPerimeter=0;" edge="1" parent="1" source="mmxd7wg98YOJcxXk12TI-11" target="mmxd7wg98YOJcxXk12TI-8">
                    <mxGeometry relative="1" as="geometry"/>
                </mxCell>
                <mxCell id="4" style="edgeStyle=none;html=1;" edge="1" parent="1" source="mmxd7wg98YOJcxXk12TI-11">
                    <mxGeometry relative="1" as="geometry">
                        <mxPoint x="200" y="380" as="targetPoint"/>
                    </mxGeometry>
                </mxCell>
                <mxCell id="5" style="edgeStyle=none;html=1;entryX=0.25;entryY=0;entryDx=0;entryDy=0;" edge="1" parent="1" source="mmxd7wg98YOJcxXk12TI-11" target="mmxd7wg98YOJcxXk12TI-2">
                    <mxGeometry relative="1" as="geometry"/>
                </mxCell>
                <mxCell id="mmxd7wg98YOJcxXk12TI-11" value="Librarian Module" style="shape=module;align=left;spacingLeft=20;align=center;verticalAlign=top;whiteSpace=wrap;html=1;" parent="1" vertex="1">
                    <mxGeometry x="40" y="140" width="160" height="50" as="geometry"/>
                </mxCell>
                <mxCell id="mmxd7wg98YOJcxXk12TI-35" style="edgeStyle=orthogonalEdgeStyle;rounded=0;orthogonalLoop=1;jettySize=auto;html=1;" parent="1" source="mmxd7wg98YOJcxXk12TI-12" edge="1">
                    <mxGeometry relative="1" as="geometry">
                        <mxPoint x="380" y="90" as="targetPoint"/>
                    </mxGeometry>
                </mxCell>
                <mxCell id="mmxd7wg98YOJcxXk12TI-36" value="" style="edgeStyle=orthogonalEdgeStyle;rounded=0;orthogonalLoop=1;jettySize=auto;html=1;" parent="1" source="mmxd7wg98YOJcxXk12TI-12" target="mmxd7wg98YOJcxXk12TI-3" edge="1">
                    <mxGeometry relative="1" as="geometry"/>
                </mxCell>
                <mxCell id="2" style="edgeStyle=none;html=1;" edge="1" parent="1" source="mmxd7wg98YOJcxXk12TI-12">
                    <mxGeometry relative="1" as="geometry">
                        <mxPoint x="620" y="350" as="targetPoint"/>
                    </mxGeometry>
                </mxCell>
                <mxCell id="mmxd7wg98YOJcxXk12TI-12" value="Member Module" style="shape=module;align=left;spacingLeft=20;align=center;verticalAlign=top;whiteSpace=wrap;html=1;" parent="1" vertex="1">
                    <mxGeometry x="330" y="150" width="100" height="50" as="geometry"/>
                </mxCell>
                <mxCell id="mmxd7wg98YOJcxXk12TI-13" value="Guest Module" style="shape=module;align=left;spacingLeft=20;align=center;verticalAlign=top;whiteSpace=wrap;html=1;" parent="1" vertex="1">
                    <mxGeometry x="610" y="140" width="100" height="50" as="geometry"/>
                </mxCell>
                <mxCell id="mmxd7wg98YOJcxXk12TI-20" style="edgeStyle=orthogonalEdgeStyle;rounded=0;orthogonalLoop=1;jettySize=auto;html=1;entryX=0.994;entryY=0.4;entryDx=0;entryDy=0;entryPerimeter=0;" parent="1" source="mmxd7wg98YOJcxXk12TI-13" target="mmxd7wg98YOJcxXk12TI-5" edge="1">
                    <mxGeometry relative="1" as="geometry"/>
                </mxCell>
                <mxCell id="mmxd7wg98YOJcxXk12TI-30" style="edgeStyle=orthogonalEdgeStyle;rounded=0;orthogonalLoop=1;jettySize=auto;html=1;entryX=0;entryY=0;entryDx=0;entryDy=15;entryPerimeter=0;" parent="1" source="mmxd7wg98YOJcxXk12TI-11" target="mmxd7wg98YOJcxXk12TI-5" edge="1">
                    <mxGeometry relative="1" as="geometry"/>
                </mxCell>
                <mxCell id="mmxd7wg98YOJcxXk12TI-34" style="edgeStyle=orthogonalEdgeStyle;rounded=0;orthogonalLoop=1;jettySize=auto;html=1;entryX=0;entryY=0;entryDx=0;entryDy=15;entryPerimeter=0;" parent="1" source="mmxd7wg98YOJcxXk12TI-11" target="mmxd7wg98YOJcxXk12TI-3" edge="1">
                    <mxGeometry relative="1" as="geometry"/>
                </mxCell>
                <mxCell id="mmxd7wg98YOJcxXk12TI-38" value="Request Raising Module" style="shape=module;align=left;spacingLeft=20;align=center;verticalAlign=top;whiteSpace=wrap;html=1;" parent="1" vertex="1">
                    <mxGeometry x="710" y="360" width="130" height="100" as="geometry"/>
                </mxCell>
            </root>
        </mxGraphModel>
    </diagram>
</mxfile>